<svg id="visual" viewBox="0 0 960 400" width="960" height="400" xmlns="http://www.w3.org/2000/svg" xmlns:xlink="http://www.w3.org/1999/xlink" version="1.1"><rect x="0" y="0" width="960" height="400" fill="#170f21"></rect><path d="M0 302L32 314.7C64 327.3 128 352.7 192 364C256 375.3 320 372.7 384 363.3C448 354 512 338 576 331.8C640 325.7 704 329.3 768 338.5C832 347.7 896 362.3 928 369.7L960 377L960 401L928 401C896 401 832 401 768 401C704 401 640 401 576 401C512 401 448 401 384 401C320 401 256 401 192 401C128 401 64 401 32 401L0 401Z" fill="#f8f1f1" stroke-linecap="round" stroke-linejoin="miter"></path></svg>