<svg id="visual" viewBox="0 0 900 600" width="900" height="600" xmlns="http://www.w3.org/2000/svg" xmlns:xlink="http://www.w3.org/1999/xlink" version="1.1"><rect x="0" y="0" width="900" height="600" fill="#170f21"></rect><path d="M0 140L25 132C50 124 100 108 150 101.8C200 95.7 250 99.3 300 107C350 114.7 400 126.3 450 127.7C500 129 550 120 600 118.2C650 116.3 700 121.7 750 124.3C800 127 850 127 875 127L900 127L900 0L875 0C850 0 800 0 750 0C700 0 650 0 600 0C550 0 500 0 450 0C400 0 350 0 300 0C250 0 200 0 150 0C100 0 50 0 25 0L0 0Z" fill="#faebeb"></path><path d="M0 68L25 71.5C50 75 100 82 150 84.7C200 87.3 250 85.7 300 86.8C350 88 400 92 450 89.8C500 87.7 550 79.3 600 80C650 80.7 700 90.3 750 92.7C800 95 850 90 875 87.5L900 85L900 0L875 0C850 0 800 0 750 0C700 0 650 0 600 0C550 0 500 0 450 0C400 0 350 0 300 0C250 0 200 0 150 0C100 0 50 0 25 0L0 0Z" fill="#fc713c"></path><path d="M0 49L25 48.7C50 48.3 100 47.7 150 48.3C200 49 250 51 300 56.3C350 61.7 400 70.3 450 70.7C500 71 550 63 600 61.8C650 60.7 700 66.3 750 69C800 71.7 850 71.3 875 71.2L900 71L900 0L875 0C850 0 800 0 750 0C700 0 650 0 600 0C550 0 500 0 450 0C400 0 350 0 300 0C250 0 200 0 150 0C100 0 50 0 25 0L0 0Z" fill="#fc713c"></path><path d="M0 43L25 43.2C50 43.3 100 43.7 150 44.7C200 45.7 250 47.3 300 48C350 48.7 400 48.3 450 46.8C500 45.3 550 42.7 600 39.3C650 36 700 32 750 30.5C800 29 850 30 875 30.5L900 31L900 0L875 0C850 0 800 0 750 0C700 0 650 0 600 0C550 0 500 0 450 0C400 0 350 0 300 0C250 0 200 0 150 0C100 0 50 0 25 0L0 0Z" fill="##faebeb"></path></svg>