<svg id="visual" viewBox="0 0 900 600" width="900" height="600" xmlns="http://www.w3.org/2000/svg" xmlns:xlink="http://www.w3.org/1999/xlink" version="1.1"><rect x="0" y="0" width="900" height="600" fill="#170f21"></rect><path d="M0 409L25 430.5C50 452 100 495 150 505C200 515 250 492 300 489.8C350 487.7 400 506.3 450 496.8C500 487.3 550 449.7 600 432.7C650 415.7 700 419.3 750 426.2C800 433 850 443 875 448L900 453L900 601L875 601C850 601 800 601 750 601C700 601 650 601 600 601C550 601 500 601 450 601C400 601 350 601 300 601C250 601 200 601 150 601C100 601 50 601 25 601L0 601Z" fill="#ffffff" stroke-linecap="round" stroke-linejoin="miter"></path></svg>